<svg width="32" height="32" viewBox="0 0 32 32" fill="none" xmlns="http://www.w3.org/2000/svg">
<path d="M9.38238 8.44H12.6714V18.537C12.6714 19.8863 12.932 20.8753 13.4534 21.504C13.9747 22.1327 14.818 22.447 15.9834 22.447C17.1334 22.447 17.9767 22.1327 18.5134 21.504C19.05 20.8753 19.3184 19.8863 19.3184 18.537V8.44H22.6074V18.422C22.6074 20.676 22.0554 22.3857 20.9514 23.551C19.8474 24.701 18.1914 25.276 15.9834 25.276C13.714 25.276 12.0427 24.701 10.9694 23.551C9.91138 22.3857 9.38238 20.676 9.38238 18.422V8.44Z" fill="#FF5F5F"/>
<circle cx="16" cy="16" r="14.5" stroke="#FF5F5F" stroke-width="3"/>
</svg>