<svg height="512pt" viewBox="-145 0 512 512.00025" width="512pt" xmlns="http://www.w3.org/2000/svg"><path d="m214.203125 102.816406c0 56.785156-46.03125 102.820313-102.816406 102.820313-56.785157 0-102.820313-46.035157-102.820313-102.820313s46.035156-102.816406 102.820313-102.816406c56.785156 0 102.816406 46.03125 102.816406 102.816406zm0 0" fill="#ff9ba0"/><path d="m205.636719 171.363281h-188.5c-9.464844 0-17.136719-7.671875-17.136719-17.136719 0-9.464843 7.671875-17.136718 17.136719-17.136718h188.5c9.464843 0 17.136719 7.671875 17.136719 17.136718 0 9.464844-7.671876 17.136719-17.136719 17.136719zm0 0" fill="#ff9ba0"/><path d="m19.378906 179.933594 85.695313 327.195312c1.703125 6.496094 10.921875 6.496094 12.621093 0l85.695313-327.195312zm0 0" fill="#f7d291"/><path d="m104.222656 205.636719h92.4375l6.730469-25.707031h-184.011719l85.695313 327.199218c.691406 2.628906 2.621093 4.191406 4.777343 4.691406l-22.710937-287.699218c-.785156-9.964844 7.085937-18.484375 17.082031-18.484375zm0 0" fill="#f0c382"/><path d="m92.558594 459.347656 18.824218-18.824218 18.828126 18.828124 5.027343-19.203124-11.738281-11.742188 20.070312-20.066406 8.597657-32.832032-4.796875 4.796876-23.871094-23.871094 23.871094-23.871094 12.714844 12.714844 5.027343-19.203125-5.628906-5.628907 9.625-9.621093 10.941406-41.777344-20.566406-20.570313 23.871094-23.871093 6.605469 6.605469 13.285156-50.726563-19.890625 19.890625-20.445313-20.445312h-31.085937l-20.441407 20.445312-20.445312-20.445312h-31.082031l-20.441407 20.445312-19.894531-19.890625 13.289063 50.726563 6.605468-6.605469 23.867188 23.871093-20.566406 20.5625 10.941406 41.785157 9.621094 9.621093-5.625 5.628907 5.027344 19.203125 12.714843-12.714844 23.871094 23.871094-23.871094 23.871094-4.796875-4.796876 8.597656 32.832032 20.070313 20.066406-11.738281 11.738281zm78.679687-174.882812-23.867187 23.867187-23.867188-23.871093 23.867188-23.867188zm-23.867187-95.84375 23.867187 23.871094-23.867187 23.867187-23.871094-23.867187zm-12.117188 59.855468-23.867187 23.867188-23.871094-23.867188 23.867187-23.871093zm-83.722656-35.984374 23.867188-23.871094 23.871093 23.871094-23.871093 23.867187zm0 71.96875 23.867188-23.871094 23.871093 23.871094-23.871093 23.871093zm35.984375 35.984374 23.871094-23.867187 23.871093 23.867187-23.871093 23.871094zm0 71.976563 23.871094-23.875 23.871093 23.875-23.871093 23.871094zm0 0" fill="#f0c382"/><path d="m19.523438 180.484375 13.289062 50.726563 6.605469-6.605469 23.867187 23.871093-20.566406 20.5625 10.941406 41.785157 9.621094 9.621093-5.625 5.628907 5.027344 19.203125 12.714844-12.714844 22.042968 22.042969-2.078125-26.308594-7.847656-7.851563 6.699219-6.703124-1.773438-22.457032-17.042968 17.042969-23.871094-23.867187 23.871094-23.871094 15.871093 15.871094-2.074219-26.308594-1.679687-1.679688 1.433594-1.433594-1.773438-22.460937-11.777343 11.78125-23.871094-23.871094 23.871094-23.867187 19.664062 19.664062c2.636719-1.671875 5.785156-2.648437 9.160156-2.648437h26.128906l17.015626-17.015625 17.015624 17.015625h32.273438l6.589844-25.15625-19.894532 19.894531-20.441406-20.445312h-31.085937l-20.445313 20.445312-20.441406-20.445312h-31.082031l-20.445313 20.445312zm0 0" fill="#e3aa75"/><path d="m101.535156 406.441406-14.019531-14.019531 11.96875-11.972656-1.773437-22.457031-22.3125 22.3125-4.796876-4.792969 8.601563 32.828125 20.066406 20.066406-11.738281 11.738281 5.027344 19.203125 12.191406-12.1875zm0 0" fill="#e3aa75"/><path d="m205.636719 188.5h-188.5c-4.734375 0-8.570313-3.835938-8.570313-8.566406 0-4.734375 3.835938-8.570313 8.570313-8.570313h188.5c4.730469 0 8.566406 3.835938 8.566406 8.570313 0 4.730468-3.835937 8.566406-8.566406 8.566406zm0 0" fill="#f7d291"/><path d="m85.679688 179.933594c0-4.734375 3.835937-8.570313 8.570312-8.570313h-77.113281c-4.734375 0-8.570313 3.835938-8.570313 8.570313 0 4.730468 3.835938 8.566406 8.570313 8.566406h77.113281c-4.734375 0-8.570312-3.835938-8.570312-8.566406zm0 0" fill="#f0c382"/><path d="m59.976562 154.226562c-4.730468 0-8.566406-3.835937-8.566406-8.566406 0-4.734375 3.835938-8.570312 8.566406-8.570312 8.308594 0 12.960938-9.726563 7.574219-16.054688-13.617187-15.996094-20.425781-36.058594-20.425781-56.773437 0-18.488281 4.890625-35.839844 13.429688-50.832031-31.054688 17.691406-51.984376 51.089843-51.984376 89.386718 0 12.035156 2.175782 23.539063 5.976563 34.273438h2.589844c-10.40625 0-18.648438 9.277344-16.902344 20.011718 1.371094 8.425782 9.28125 14.261719 17.820313 14.261719h187.582031c9.464843 0 17.136719-7.671875 17.136719-17.136719zm0 0" fill="#ff8087"/></svg>