<svg width="1001" height="1001" viewBox="0 0 1001 1001" fill="none" xmlns="http://www.w3.org/2000/svg">
<circle cx="500.5" cy="500.5" r="500.5" fill="#FEF7F5"/>
<path d="M312.111 790.204C303.874 790.204 297.195 796.882 297.195 805.119C297.195 813.356 303.874 820.031 312.111 820.031C320.348 820.031 327.023 813.353 327.023 805.119C327.023 796.886 320.348 790.204 312.111 790.204Z" fill="#FF5F5F"/>
<path d="M752.483 381.066C779.402 381.066 801.306 359.162 801.306 332.243C801.306 305.324 779.402 283.42 752.483 283.42C725.564 283.42 703.66 305.324 703.66 332.243C703.66 359.162 725.564 381.066 752.483 381.066ZM752.483 311.319C764.023 311.319 773.407 320.703 773.407 332.243C773.407 343.783 764.023 353.167 752.483 353.167C740.943 353.167 731.559 343.783 731.559 332.243C731.559 320.703 740.943 311.319 752.483 311.319Z" fill="#FF5F5F"/>
<path d="M464.342 698.578C467.065 701.301 470.636 702.665 474.204 702.665C477.772 702.665 481.343 701.301 484.066 698.578C489.513 693.13 489.513 684.3 484.066 678.853L473.004 667.791L484.066 656.729C489.513 651.282 489.513 642.452 484.066 637.005C478.619 631.558 469.789 631.558 464.342 637.005L453.28 648.067L442.218 637.005C436.771 631.558 427.941 631.558 422.494 637.005C417.046 642.452 417.046 651.282 422.494 656.729L433.555 667.791L422.494 678.853C417.046 684.3 417.046 693.13 422.494 698.578C425.217 701.301 428.788 702.665 432.356 702.665C435.923 702.665 439.494 701.301 442.218 698.578L453.28 687.516L464.342 698.578Z" fill="#FF5F5F"/>
<path d="M874.933 621.078C863.836 609.982 795.474 569.124 753.905 544.713C757.835 543.049 762.1 541.096 766.69 538.802C772.308 535.987 775.359 529.762 774.135 523.6L767.425 489.913C766.233 483.953 761.323 479.444 755.283 478.777C686.899 471.175 659.625 444.546 645.065 425.173C635.21 412.068 628.288 397.962 621.595 384.312C616.35 373.62 611.391 363.51 605.288 354.356C594.084 337.554 574.481 324.993 555.521 312.85C517.589 288.546 495.015 271.961 508.372 238.573C517.77 215.061 525.066 217.262 542.687 222.552C553.721 225.868 567.426 229.997 580.082 222.402C589.902 216.505 596.155 205.345 599.768 187.305C605.379 159.257 607.723 145.335 599.855 135.389C593.243 127.037 583.562 126.706 573.32 126.357C562.237 125.977 545.491 125.405 521.526 115.815C480.762 99.5151 463.779 104.408 445.819 112.491C436.1 116.851 428.445 120.338 408.139 115.236C404.93 114.434 401.987 113.893 399.106 113.412C353.663 105.674 339.794 133.457 331.469 150.022C329.283 154.367 327.023 158.863 325.136 160.756C316.153 169.719 296.115 167.794 275.114 146.807C260.798 132.484 239.724 129.586 217.329 138.859C192.889 148.98 167.606 174.067 167.606 198.517C167.606 209.028 170.63 219.019 173.552 228.676C179.697 248.958 186.044 269.938 169.078 303.87C158.888 324.25 158.337 340.616 167.435 352.529C183.1 373.045 219.09 367.043 226.141 365.634C227.742 365.313 229.266 364.713 230.664 363.87L298.517 322.506L340.746 345.746C345.799 357.16 356.411 373.746 371.138 396.333C376.076 403.901 380.885 411.269 384.944 417.773C397.593 438.017 463.532 539.708 519.929 553.808C545.777 560.273 589.756 580.025 625.257 608.119C656.137 632.559 691.51 671.77 684.65 719.802C677.17 772.105 661.532 771.882 635.827 770.319L508.504 742.633C502.178 741.252 495.612 744.478 492.874 750.431L463.525 814.197C461.802 817.935 461.823 822.256 463.58 825.981L481.516 863.993C483.587 868.387 487.803 871.389 492.637 871.909L560.462 879.205C567.866 881.726 576.134 884.934 584.738 888.265C591.747 890.974 598.959 893.768 606.105 896.355C607.632 896.906 609.236 897.192 610.858 897.192H675.388C681.326 897.192 686.62 893.426 688.566 887.815C690.003 883.668 690.704 879.49 690.704 875.058C690.704 827.449 708.21 827.449 717.609 827.449C737.152 827.449 769.218 812.907 790.163 785.949C808.402 762.483 814.233 735.153 807.042 706.905C803.568 693.291 794.773 680.478 786.268 668.088C781.016 660.433 772.231 647.635 772.088 644.433C772.088 644.426 772.468 644.025 773.668 643.425C783.502 638.473 800.925 652.66 813.622 663.007C825.57 672.74 834.198 679.77 844.15 679.77C849.047 679.77 853.591 677.204 856.112 673.001L877.036 638.128C880.328 632.632 879.463 625.602 874.933 621.078V621.078ZM365.195 331.751C364.111 328.334 361.757 325.456 358.615 323.734L304.882 294.165C300.502 291.748 295.17 291.87 290.898 294.471L218.385 338.67C206.989 340.463 192.659 339.612 189.601 335.584C188.436 334.056 188.056 328.281 194.03 316.341C215.962 272.47 206.884 242.479 200.255 220.582C197.702 212.163 195.501 204.889 195.501 198.507C195.501 189.258 209.995 172.08 227.996 164.62C236.216 161.213 247.641 158.782 255.386 166.521C270.465 181.6 287.058 190.803 303.379 193.133C319.445 195.42 334.528 190.81 344.861 180.47C349.935 175.403 353.216 168.864 356.4 162.535C362.807 149.785 367.623 140.708 382.827 140.122V363.001C374.622 350.115 367.012 337.498 365.195 331.751V331.751ZM410.723 406.304V144.23C434.238 148.205 446.904 142.58 457.265 137.928C468.94 132.662 478.182 128.523 511.155 141.722C539.653 153.119 560.127 153.82 572.361 154.235C573.84 154.291 575.486 154.343 576.95 154.427C576.452 161.579 573.714 175.278 572.406 181.827C569.613 195.783 566.098 198.249 565.711 198.479C563.653 199.724 555.869 197.384 550.712 195.828C533.446 190.653 501.345 181.007 482.457 228.201C459.859 284.7 504.553 313.334 540.469 336.337C557.77 347.42 574.108 357.889 582.073 369.829C587.154 377.453 591.719 386.757 596.546 396.598C602.865 409.474 610.091 423.897 619.963 437.881V570.093C586.499 548.064 550.767 532.758 526.698 526.739C494.168 518.61 444.327 459.28 410.723 406.304V406.304ZM594.809 862.242C585.219 858.532 576.002 854.974 567.883 852.265C566.938 851.951 565.955 851.735 564.961 851.63L503.402 845.011L491.577 819.951L513.523 772.272L619.96 795.418V869.29H613.32C607.123 867.013 600.884 864.593 594.809 862.242V862.242ZM838.881 647.478C836.346 645.528 833.594 643.289 831.24 641.375C813.702 627.084 787.185 605.466 761.187 618.463C750.725 623.694 746.871 631.227 745.473 636.622C741.476 652.116 752.06 667.537 763.265 683.865C770.39 694.246 777.758 704.98 780.001 713.793C785.068 733.66 781.071 752.175 768.137 768.827C752.559 788.872 728.782 799.547 717.612 799.547C682.669 799.547 664.28 823.006 662.892 869.293H647.865V798.368C682.226 797.221 704.015 781.482 712.266 723.753C718.931 677.089 696.503 631.279 647.865 590.812V467.859C671.9 487.36 702.582 499.572 742.024 505.205L744.639 518.324C727.272 525.857 718.463 526.32 718.606 526.32C712.298 526.32 706.767 530.558 705.135 536.653C703.503 542.749 706.156 549.18 711.618 552.339C757.811 579.087 822.871 617.943 846.745 634.379L838.881 647.478Z" fill="#FF5F5F"/>
<path d="M305.707 714.201C309.7 712.063 312.41 708.126 312.968 703.631L326.917 592.036C327.604 586.554 324.989 581.187 320.257 578.344L250.51 536.496C244.114 532.646 235.845 534.529 231.723 540.719C230.43 542.662 200.222 588.792 216.146 636.566C231.744 683.352 290.401 713.13 292.888 714.375C294.855 715.355 296.989 715.847 299.127 715.847C301.387 715.85 303.657 715.299 305.707 714.201V714.201ZM287.936 678.947C271.022 667.383 249.638 648.813 242.614 627.739C235.054 605.064 242.559 581.588 248.724 567.956L298.105 597.591L287.936 678.947Z" fill="#FF5F5F"/>
</svg>

