<svg width="664" height="664" viewBox="0 0 664 664" fill="none" xmlns="http://www.w3.org/2000/svg">
<circle cx="332" cy="332" r="332" fill="#FEF7F5"/>
<path d="M121.867 452.464C54.9587 336.564 94.829 187.812 210.729 120.891C326.602 53.9832 475.328 93.8273 542.236 209.727C589.66 291.872 583.243 390.326 534.369 464.643L560.531 481.906C615.782 398.062 622.996 286.971 569.365 194.019C493.689 62.9739 326.092 18.0986 195.06 93.762C64.0148 169.438 19.0742 336.983 94.7637 468.093C148.394 561.019 248.22 610.298 348.438 604.366L346.57 573.068C257.825 578.282 169.277 534.596 121.867 452.464Z" fill="#FF5F5F"/>
<path d="M476.903 581.94C443.135 601.425 406.597 611.631 370.072 613.722L371.967 645.072C413.157 642.615 454.4 631.128 492.571 609.043C530.743 587.011 561.348 557.046 584.06 522.625L557.898 505.349C537.76 535.902 510.644 562.443 476.903 581.94Z" fill="#FF5F5F"/>
<path d="M544.814 496.723L355.551 371.754L369.128 598.117C403.301 596.144 437.474 586.591 469.072 568.374C500.657 550.157 525.996 525.276 544.814 496.723ZM433.383 562.036C432.286 566.192 429.672 569.668 425.974 571.733C423.53 573.144 420.786 573.889 418.002 573.889C412.331 573.889 407.012 570.883 404.15 565.917C402.033 562.258 401.458 557.92 402.569 553.803C403.667 549.7 406.32 546.263 409.992 544.107C412.422 542.748 415.167 541.964 417.924 541.964C423.648 541.964 428.94 545.048 431.802 549.935C433.919 553.673 434.494 557.933 433.383 562.036ZM459.297 506.092C458.173 506.667 457.01 507.282 455.965 508.039C454.88 508.863 453.965 509.791 453.09 510.679C451.339 512.43 449.705 514.077 447.445 514.077C445.445 514.077 443.589 512.796 441.459 509.974C439.003 506.628 434.782 499.245 431.279 491.914C425.02 495.233 419.074 497.036 414.409 497.036C409.639 497.036 407.234 495.168 406.071 493.586C403.745 490.476 402.883 483.916 403.902 476.964C405.3 467.516 409.835 459.335 416.33 454.487C422.72 449.783 430.169 448.763 435.226 448.763C444.347 448.763 453.573 451.978 456.684 456.16C460.447 461.309 456.88 470.587 447.719 479.774C453.443 485.053 459.428 491.326 461.989 494.762C463.989 497.507 464.694 499.585 464.263 501.427C463.727 503.766 461.558 504.903 459.297 506.092Z" fill="#FF5F5F"/>
<path d="M528.676 217.556C466.08 109.131 326.946 71.8876 218.561 134.47C110.136 197.065 72.8399 336.174 135.435 444.598C179.801 521.451 262.573 562.314 345.607 557.427L332.056 331.064L521.292 456.033C567.069 386.538 573.055 294.409 528.676 217.556ZM205.427 189.76C207.871 188.375 210.602 187.643 213.373 187.643C219.083 187.643 224.363 190.701 227.225 195.641C229.342 199.339 229.917 203.652 228.845 207.755C227.747 211.858 225.108 215.308 221.409 217.451C218.966 218.85 216.234 219.582 213.438 219.582C207.753 219.582 202.461 216.511 199.599 211.571C195.169 203.965 197.822 194.177 205.427 189.76ZM223.396 434.249C217.437 437.659 210.694 439.437 203.898 439.437C189.929 439.437 176.952 431.975 170.013 419.926C159.206 401.2 165.622 377.285 184.257 366.504C190.19 363.067 196.894 361.303 203.715 361.303C217.672 361.303 230.661 368.791 237.64 380.853C248.368 399.488 241.952 423.468 223.396 434.249ZM269.356 320.832C267.474 321.498 265.788 322.426 264.181 323.315C261.698 324.687 259.568 325.876 257.32 325.876C253.086 325.876 251.021 321.694 249.675 318.022C247.532 312.103 244.67 299.636 242.854 288.345C237.548 289.443 232.504 290.005 227.878 290.005C216.888 290.005 209.674 286.816 207.597 281.014C205.597 275.525 207.479 265.424 212.314 255.91C215.699 249.233 223.435 237.354 237.143 232.362C241.351 230.807 245.925 230.036 250.734 230.036C269.774 230.036 288.043 242.32 291.035 250.631C294.067 258.903 285.142 270.128 268.728 278.923C275.21 289.717 280.659 300.799 282.593 306.013C284.135 310.299 284.318 313.266 283.116 315.422C281.561 318.114 278.333 318.767 274.909 319.434C273.106 319.76 271.211 320.126 269.356 320.832ZM302.078 481.973C299.634 483.332 296.903 484.129 294.106 484.129C288.396 484.129 283.103 481.045 280.254 476.144C275.837 468.474 278.49 458.699 286.096 454.347C288.552 452.91 291.297 452.178 294.093 452.178C299.791 452.178 305.07 455.183 307.919 460.149C312.31 467.755 309.696 477.543 302.078 481.973ZM391.227 194.23C386.915 196.713 382.014 198.032 377.062 198.032C366.934 198.032 357.473 192.583 352.402 183.841C344.575 170.25 349.253 152.857 362.804 145.003C367.13 142.533 372.03 141.2 377.009 141.2C387.111 141.2 396.572 146.649 401.616 155.418C409.483 168.969 404.818 186.389 391.227 194.23ZM458.645 375.26C456.201 376.671 453.457 377.403 450.647 377.403C444.95 377.403 439.67 374.397 436.808 369.458C432.417 361.813 435.018 352.025 442.636 347.621C445.093 346.223 447.811 345.504 450.595 345.504C456.319 345.504 461.585 348.549 464.434 353.476C468.89 361.094 466.276 370.843 458.645 375.26ZM511.975 294.657C510.786 296.081 509.518 297.545 508.486 299.204C507.44 300.903 506.735 302.707 506.029 304.419C504.513 308.104 502.932 311.959 498.606 311.959C496.659 311.959 494.333 311.122 491.38 309.332C486.689 306.47 476.914 298.995 467.492 290.436C455.796 304.693 442.898 311.332 435.397 306.797C430.771 303.974 426.197 295.911 423.832 286.241C420.617 273.121 422.133 260.014 427.987 250.317C437.083 235.341 456.306 228.507 470.249 228.507C475.045 228.507 478.965 229.317 481.487 230.846C489.015 235.433 489.054 249.768 481.749 266.874C493.68 271.278 504.853 276.558 509.518 279.38C513.412 281.759 515.412 283.954 515.791 286.398C516.353 289.482 514.236 291.965 511.975 294.657Z" fill="#FF5F5F"/>
</svg>

